<?xml version="1.0" encoding="UTF-8" standalone="no"?>
<svg
   xmlns:dc="http://purl.org/dc/elements/1.1/"
   xmlns:cc="http://creativecommons.org/ns#"
   xmlns:rdf="http://www.w3.org/1999/02/22-rdf-syntax-ns#"
   xmlns:svg="http://www.w3.org/2000/svg"
   xmlns="http://www.w3.org/2000/svg"
   viewBox="0 0 617.33331 714.66669"
   height="714.66669"
   width="617.33331"
   xml:space="preserve"
   id="svg2"
   version="1.1"><metadata
     id="metadata8"><rdf:RDF><cc:Work
         rdf:about=""><dc:format>image/svg+xml</dc:format><dc:type
           rdf:resource="http://purl.org/dc/dcmitype/StillImage" /></cc:Work></rdf:RDF></metadata><defs
     id="defs6" /><g
     transform="matrix(1.3333333,0,0,-1.3333333,0,714.66667)"
     id="g10"><g
       transform="scale(0.1)"
       id="g12"><path
         id="path14"
         style="fill:#2a7cc0;fill-opacity:1;fill-rule:evenodd;stroke:none"
         d="M 2968.24,5353.54 H 1646.8 c -253.71,0 -528.75,-207.58 -611.21,-461.29 L 31.7227,1803.68 C -50.7422,1549.98 89.3672,1342.41 343.074,1342.41 H 1664.52 l 571.41,1758.05 h -970.69 c -53.57,0 -77.44,43.46 -61.61,92.17 l 76.14,234.3 c 16.8,51.64 74.08,97.67 129.11,97.67 h 964.91 z m 0,-1337.05 h 1321.44 c 253.71,0 393.82,-207.57 311.36,-461.28 L 3597.16,466.641 C 3514.7,212.938 3239.67,5.36328 2985.96,5.36328 H 1664.52 L 2670.51,3100.46 h 955.08 c 55.01,0 112.32,46.03 129.1,97.67 l 76.13,234.31 c 15.84,48.7 -8.03,92.16 -61.6,92.16 h -960.86 l 159.88,491.89" /></g></g></svg>
